<svg id="visual" viewBox="0 0 900 600" width="900" height="600" xmlns="http://www.w3.org/2000/svg" xmlns:xlink="http://www.w3.org/1999/xlink" version="1.1"><path d="M0 249L129 307L257 260L386 291L514 329L643 254L771 334L900 253L900 601L771 601L643 601L514 601L386 601L257 601L129 601L0 601Z" fill="#c4d7b2"></path><path d="M0 301L129 326L257 363L386 364L514 349L643 307L771 405L900 351L900 601L771 601L643 601L514 601L386 601L257 601L129 601L0 601Z" fill="#cedeb9"></path><path d="M0 450L129 372L257 439L386 457L514 400L643 478L771 409L900 469L900 601L771 601L643 601L514 601L386 601L257 601L129 601L0 601Z" fill="#d8e5c1"></path><path d="M0 479L129 486L257 546L386 510L514 519L643 529L771 542L900 502L900 601L771 601L643 601L514 601L386 601L257 601L129 601L0 601Z" fill="#e1ecc8"></path></svg>