<svg id="visual" viewBox="0 0 900 600" width="900" height="600" xmlns="http://www.w3.org/2000/svg" xmlns:xlink="http://www.w3.org/1999/xlink" version="1.1"><rect x="0" y="0" width="900" height="600" fill="#A0C49D"></rect><path d="M0 352L21.5 359.2C43 366.3 86 380.7 128.8 387.8C171.7 395 214.3 395 257.2 403C300 411 343 427 385.8 431.3C428.7 435.7 471.3 428.3 514.2 425.7C557 423 600 425 642.8 429C685.7 433 728.3 439 771.2 427.2C814 415.3 857 385.7 878.5 370.8L900 356L900 601L878.5 601C857 601 814 601 771.2 601C728.3 601 685.7 601 642.8 601C600 601 557 601 514.2 601C471.3 601 428.7 601 385.8 601C343 601 300 601 257.2 601C214.3 601 171.7 601 128.8 601C86 601 43 601 21.5 601L0 601Z" fill="#c4d7b2"></path><path d="M0 480L21.5 474C43 468 86 456 128.8 453.5C171.7 451 214.3 458 257.2 451.2C300 444.3 343 423.7 385.8 424.5C428.7 425.3 471.3 447.7 514.2 460.2C557 472.7 600 475.3 642.8 463.5C685.7 451.7 728.3 425.3 771.2 419.8C814 414.3 857 429.7 878.5 437.3L900 445L900 601L878.5 601C857 601 814 601 771.2 601C728.3 601 685.7 601 642.8 601C600 601 557 601 514.2 601C471.3 601 428.7 601 385.8 601C343 601 300 601 257.2 601C214.3 601 171.7 601 128.8 601C86 601 43 601 21.5 601L0 601Z" fill="#ccdcb7"></path><path d="M0 506L21.5 499C43 492 86 478 128.8 471.2C171.7 464.3 214.3 464.7 257.2 467.7C300 470.7 343 476.3 385.8 483.5C428.7 490.7 471.3 499.3 514.2 502.8C557 506.3 600 504.7 642.8 501.3C685.7 498 728.3 493 771.2 488C814 483 857 478 878.5 475.5L900 473L900 601L878.5 601C857 601 814 601 771.2 601C728.3 601 685.7 601 642.8 601C600 601 557 601 514.2 601C471.3 601 428.7 601 385.8 601C343 601 300 601 257.2 601C214.3 601 171.7 601 128.8 601C86 601 43 601 21.5 601L0 601Z" fill="#d3e1bd"></path><path d="M0 488L21.5 497C43 506 86 524 128.8 527.8C171.7 531.7 214.3 521.3 257.2 519.7C300 518 343 525 385.8 526.8C428.7 528.7 471.3 525.3 514.2 520C557 514.7 600 507.3 642.8 508.5C685.7 509.7 728.3 519.3 771.2 521C814 522.7 857 516.3 878.5 513.2L900 510L900 601L878.5 601C857 601 814 601 771.2 601C728.3 601 685.7 601 642.8 601C600 601 557 601 514.2 601C471.3 601 428.7 601 385.8 601C343 601 300 601 257.2 601C214.3 601 171.7 601 128.8 601C86 601 43 601 21.5 601L0 601Z" fill="#dae6c2"></path><path d="M0 536L21.5 537.7C43 539.3 86 542.7 128.8 541.3C171.7 540 214.3 534 257.2 536C300 538 343 548 385.8 547.5C428.7 547 471.3 536 514.2 533.2C557 530.3 600 535.7 642.8 538.8C685.7 542 728.3 543 771.2 540.3C814 537.7 857 531.3 878.5 528.2L900 525L900 601L878.5 601C857 601 814 601 771.2 601C728.3 601 685.7 601 642.8 601C600 601 557 601 514.2 601C471.3 601 428.7 601 385.8 601C343 601 300 601 257.2 601C214.3 601 171.7 601 128.8 601C86 601 43 601 21.5 601L0 601Z" fill="#e1ecc8"></path></svg>